<svg viewBox="0 0 512 512" xmlns="http://www.w3.org/2000/svg">
  <!-- background -->
  <rect width="512" height="512" rx="108" fill="#28384A"/>

  <!-- knob -->
  <rect x="231" y="48" width="50" height="58" rx="14" fill="#B8BCC2"/>
  <circle cx="256" cy="50" r="22" fill="#9AA0AA"/>

  <!-- outer ring -->
  <circle cx="256" cy="294" r="180" fill="#D9A441"/>

  <!-- inner face -->
  <circle cx="256" cy="294" r="146" fill="#F2E8D5"/>

  <!-- tick marks -->
  <g stroke="#28384A" stroke-width="7" stroke-linecap="round">
    <line x1="256" y1="174" x2="256" y2="152" transform="rotate(0 256 294)"/>
    <line x1="256" y1="174" x2="256" y2="152" transform="rotate(30 256 294)"/>
    <line x1="256" y1="174" x2="256" y2="152" transform="rotate(60 256 294)"/>
    <line x1="256" y1="174" x2="256" y2="152" transform="rotate(90 256 294)"/>
    <line x1="256" y1="174" x2="256" y2="152" transform="rotate(120 256 294)"/>
    <line x1="256" y1="174" x2="256" y2="152" transform="rotate(150 256 294)"/>
    <line x1="256" y1="174" x2="256" y2="152" transform="rotate(180 256 294)"/>
    <line x1="256" y1="174" x2="256" y2="152" transform="rotate(210 256 294)"/>
    <line x1="256" y1="174" x2="256" y2="152" transform="rotate(240 256 294)"/>
    <line x1="256" y1="174" x2="256" y2="152" transform="rotate(270 256 294)"/>
    <line x1="256" y1="174" x2="256" y2="152" transform="rotate(300 256 294)"/>
    <line x1="256" y1="174" x2="256" y2="152" transform="rotate(330 256 294)"/>
  </g>

  <!-- pointer -->
  <polygon points="256,294 244,160 268,160" fill="#C1442D" transform="rotate(55 256 294)"/>

  <!-- center hub -->
  <circle cx="256" cy="294" r="17" fill="#28384A"/>
</svg>
